<svg width="249" height="249" viewBox="0 0 249 249" fill="none" xmlns="http://www.w3.org/2000/svg">
<g clip-path="url(#clip0_759_253)">
<circle cx="124.916" cy="123.887" r="123.887" fill="#39AABB"/>
<path d="M50.5847 110.259C71.0921 110.259 86.4706 89.8175 86.4706 89.8175C86.4706 89.8175 101.849 110.259 122.356 110.259C142.856 110.259 163.363 89.8175 163.363 89.8175C163.363 89.8175 183.87 110.259 199.249 110.259M50.5847 157.955C71.0921 157.955 86.4706 137.514 86.4706 137.514C86.4706 137.514 101.849 157.955 122.356 157.955C142.856 157.955 163.363 137.514 163.363 137.514C163.363 137.514 183.87 157.955 199.249 157.955" stroke="white" stroke-width="3.07826" stroke-linecap="round" stroke-linejoin="round"/>
</g>
<defs>
<clipPath id="clip0_759_253">
<rect x="0.869385" width="247.773" height="249" rx="123.887" fill="white"/>
</clipPath>
</defs>
</svg>
