<svg width="767" height="229" viewBox="0 0 767 229" fill="none" xmlns="http://www.w3.org/2000/svg">
<path d="M247.538 162.035C240.725 162.035 234.127 161 227.744 158.93C221.448 156.774 216.489 154.014 212.867 150.65L217.653 140.559C221.103 143.664 225.502 146.209 230.849 148.192C236.283 150.09 241.846 151.038 247.538 151.038C255.042 151.038 260.648 149.788 264.356 147.287C268.065 144.699 269.919 141.292 269.919 137.066C269.919 133.961 268.884 131.46 266.815 129.563C264.831 127.579 262.33 126.07 259.311 125.035C256.379 124 252.196 122.835 246.762 121.542C239.948 119.903 234.429 118.264 230.202 116.626C226.063 114.987 222.483 112.486 219.465 109.122C216.532 105.672 215.066 101.058 215.066 95.2794C215.066 90.4496 216.317 86.0941 218.818 82.2129C221.405 78.3318 225.286 75.2269 230.461 72.8982C235.636 70.5695 242.061 69.4052 249.738 69.4052C255.085 69.4052 260.346 70.0952 265.521 71.4751C270.696 72.8551 275.137 74.8388 278.846 77.4262L274.577 87.7759C270.782 85.361 266.728 83.5498 262.416 82.3423C258.104 81.0486 253.877 80.4017 249.738 80.4017C242.406 80.4017 236.887 81.7386 233.178 84.4123C229.556 87.0859 227.744 90.5358 227.744 94.7619C227.744 97.8669 228.779 100.411 230.849 102.395C232.919 104.292 235.464 105.802 238.482 106.923C241.587 107.958 245.77 109.079 251.031 110.286C257.845 111.925 263.321 113.564 267.461 115.203C271.601 116.841 275.137 119.342 278.07 122.706C281.088 126.07 282.598 130.598 282.598 136.29C282.598 141.034 281.304 145.389 278.717 149.357C276.129 153.238 272.205 156.343 266.944 158.671C261.683 160.914 255.214 162.035 247.538 162.035ZM361.656 127.105C361.656 128.053 361.569 129.304 361.397 130.857H305.767C306.544 136.894 309.174 141.767 313.659 145.475C318.23 149.098 323.879 150.909 330.607 150.909C338.8 150.909 345.398 148.149 350.4 142.629L357.257 150.65C354.152 154.273 350.271 157.033 345.614 158.93C341.043 160.828 335.911 161.776 330.219 161.776C322.974 161.776 316.548 160.31 310.942 157.378C305.336 154.359 300.981 150.176 297.876 144.829C294.857 139.481 293.348 133.444 293.348 126.717C293.348 120.076 294.814 114.081 297.746 108.734C300.765 103.387 304.862 99.2468 310.037 96.3144C315.298 93.2957 321.206 91.7864 327.76 91.7864C334.315 91.7864 340.137 93.2957 345.226 96.3144C350.4 99.2468 354.411 103.387 357.257 108.734C360.19 114.081 361.656 120.205 361.656 127.105ZM327.76 102.265C321.809 102.265 316.807 104.077 312.753 107.699C308.786 111.321 306.457 116.065 305.767 121.93H349.754C349.064 116.151 346.692 111.451 342.638 107.828C338.671 104.12 333.712 102.265 327.76 102.265ZM401.975 91.7864C411.462 91.7864 418.707 94.1151 423.709 98.7725C428.798 103.43 431.342 110.373 431.342 119.601V161H419.57V151.944C417.5 155.135 414.524 157.593 410.643 159.318C406.848 160.957 402.32 161.776 397.059 161.776C389.383 161.776 383.216 159.922 378.559 156.213C373.988 152.505 371.702 147.632 371.702 141.594C371.702 135.557 373.901 130.727 378.3 127.105C382.699 123.396 389.685 121.542 399.258 121.542H418.923V119.084C418.923 113.736 417.37 109.64 414.265 106.793C411.16 103.947 406.589 102.524 400.552 102.524C396.498 102.524 392.531 103.214 388.65 104.594C384.769 105.888 381.491 107.656 378.818 109.898L373.643 100.584C377.179 97.7375 381.405 95.5813 386.321 94.1151C391.237 92.5626 396.455 91.7864 401.975 91.7864ZM399.129 152.203C403.872 152.203 407.969 151.168 411.419 149.098C414.869 146.942 417.37 143.923 418.923 140.042V130.468H399.776C389.254 130.468 383.992 134.005 383.992 141.077C383.992 144.527 385.329 147.244 388.003 149.227C390.677 151.211 394.385 152.203 399.129 152.203Z" fill="white"/>
<circle cx="95.0994" cy="114.099" r="78.0994" fill="#39AABB"/>
<path d="M48.2407 105.508C61.1688 105.508 70.8635 92.6219 70.8635 92.6219C70.8635 92.6219 80.5582 105.508 93.4863 105.508C106.409 105.508 119.337 92.6219 119.337 92.6219C119.337 92.6219 132.265 105.508 141.96 105.508M48.2407 135.577C61.1688 135.577 70.8635 122.69 70.8635 122.69C70.8635 122.69 80.5582 135.577 93.4863 135.577C106.409 135.577 119.337 122.69 119.337 122.69C119.337 122.69 132.265 135.577 141.96 135.577" stroke="white" stroke-width="1.94057" stroke-linecap="round" stroke-linejoin="round"/>
<path d="M509.249 156.86C507.524 158.413 505.367 159.62 502.78 160.483C500.279 161.259 497.648 161.647 494.888 161.647C488.506 161.647 483.59 159.922 480.14 156.472C476.69 153.022 474.965 148.149 474.965 141.853V100.713H462.804V92.9508H474.965V78.0731H484.151V92.9508H504.85V100.713H484.151V141.336C484.151 145.389 485.142 148.494 487.126 150.65C489.196 152.72 492.128 153.755 495.923 153.755C497.821 153.755 499.632 153.453 501.357 152.85C503.168 152.246 504.721 151.383 506.014 150.262L509.249 156.86ZM587.292 92.9508V161H578.494V148.58C576.08 152.72 572.759 155.955 568.533 158.283C564.307 160.526 559.477 161.647 554.043 161.647C545.16 161.647 538.131 159.189 532.956 154.273C527.867 149.27 525.323 141.982 525.323 132.409V92.9508H534.508V131.503C534.508 138.662 536.276 144.095 539.812 147.804C543.349 151.513 548.394 153.367 554.949 153.367C562.107 153.367 567.757 151.211 571.897 146.899C576.036 142.5 578.106 136.419 578.106 128.657V92.9508H587.292ZM648.077 92.4333C654.459 92.4333 660.238 93.8995 665.413 96.8319C670.588 99.6781 674.641 103.732 677.574 108.993C680.506 114.254 681.972 120.248 681.972 126.975C681.972 133.703 680.506 139.697 677.574 144.958C674.641 150.219 670.588 154.316 665.413 157.248C660.238 160.181 654.459 161.647 648.077 161.647C642.385 161.647 637.253 160.439 632.682 158.024C628.197 155.61 624.575 152.117 621.815 147.545V161H613.017V65.0066H622.203V105.888C625.049 101.489 628.671 98.1687 633.07 95.9263C637.555 93.5976 642.557 92.4333 648.077 92.4333ZM647.43 153.496C652.174 153.496 656.486 152.418 660.367 150.262C664.248 148.02 667.267 144.872 669.423 140.818C671.666 136.764 672.787 132.15 672.787 126.975C672.787 121.801 671.666 117.186 669.423 113.133C667.267 109.079 664.248 105.974 660.367 103.818C656.486 101.575 652.174 100.454 647.43 100.454C642.6 100.454 638.245 101.575 634.364 103.818C630.569 105.974 627.55 109.079 625.308 113.133C623.151 117.186 622.073 121.801 622.073 126.975C622.073 132.15 623.151 136.764 625.308 140.818C627.55 144.872 630.569 148.02 634.364 150.262C638.245 152.418 642.6 153.496 647.43 153.496ZM759.949 129.822H703.025C703.543 136.894 706.26 142.629 711.176 147.028C716.092 151.34 722.302 153.496 729.805 153.496C734.031 153.496 737.912 152.763 741.449 151.297C744.985 149.745 748.047 147.502 750.634 144.57L755.809 150.521C752.79 154.143 748.995 156.903 744.424 158.801C739.939 160.698 734.98 161.647 729.546 161.647C722.56 161.647 716.351 160.181 710.917 157.248C705.57 154.23 701.387 150.09 698.368 144.829C695.349 139.568 693.84 133.616 693.84 126.975C693.84 120.334 695.263 114.383 698.109 109.122C701.042 103.861 705.009 99.7643 710.011 96.8319C715.1 93.8995 720.792 92.4333 727.088 92.4333C733.384 92.4333 739.034 93.8995 744.036 96.8319C749.038 99.7643 752.963 103.861 755.809 109.122C758.655 114.297 760.078 120.248 760.078 126.975L759.949 129.822ZM727.088 100.325C720.534 100.325 715.014 102.438 710.529 106.664C706.13 110.804 703.629 116.238 703.025 122.965H751.281C750.677 116.238 748.133 110.804 743.648 106.664C739.249 102.438 733.729 100.325 727.088 100.325Z" fill="white"/>
</svg>
