<svg width="22" height="20" viewBox="0 0 22 20" fill="none" xmlns="http://www.w3.org/2000/svg">
<path d="M20.7351 9.8483L11.7176 0.835473L11.1132 0.231039C10.9755 0.0942282 10.7892 0.0174446 10.5951 0.0174446C10.401 0.0174446 10.2147 0.0942282 10.077 0.231039L0.455072 9.8483C0.313954 9.98887 0.202427 10.1563 0.127072 10.3407C0.0517177 10.525 0.0140635 10.7226 0.0163321 10.9218C0.025667 11.7433 0.709447 12.3991 1.53092 12.3991H2.52275V20H18.6674V12.3991H19.6803C20.0793 12.3991 20.4551 12.2427 20.7374 11.9603C20.8765 11.8217 20.9867 11.6569 21.0616 11.4755C21.1365 11.294 21.1746 11.0995 21.1739 10.9031C21.1739 10.5064 21.0175 10.1307 20.7351 9.8483V9.8483ZM11.902 18.3197H9.28821V13.5589H11.902V18.3197ZM16.9872 10.7188V18.3197H13.3956V12.9988C13.3956 12.4831 12.9778 12.0653 12.4621 12.0653H8.72811C8.21236 12.0653 7.79463 12.4831 7.79463 12.9988V18.3197H4.20303V10.7188H1.96266L10.5974 2.09101L11.1365 2.6301L19.2299 10.7188H16.9872Z" fill="black"/>
</svg>
